<?xml version="1.0" encoding="utf-8"?><svg xmlns="http://www.w3.org/2000/svg" xmlns:xlink="http://www.w3.org/1999/xlink" width="1366" height="625" preserveAspectRatio="xMidYMid" viewBox="0 0 1366 625" style="z-index:1;margin-right:-2px;display:block;background-repeat-y:initial;background-repeat-x:initial;background-color:rgb(255, 255, 255);animation-play-state:paused" ><g transform="" style="animation-play-state:paused" ><path id="path0" d="M 62.669075871153886 200.83710377400485
c 0 28.769683376892175 -7.039390613494892 8.263632459320092 -15.303023072814986 8.263632459320092
S 32.06302972552391 229.60678715089702 32.06302972552391 200.83710377400485
s 7.039390613494892 -8.263632459320092 15.303023072814986 -8.263632459320092
S 62.669075871153886 172.06742039711267 62.669075871153886 200.83710377400485
z" fill="none" stroke="none" style="animation-play-state:paused" ></path>


<circle cx="0" cy="0" r="6.929567547944855" fill="#de9dd6" transform="translate(33.40106964111328 214.5409698486328)" style="animation-play-state:paused" ></circle>
<path id="path1" d="M 374.2578390263828 146.13665136593826
c 0 21.72576197378738 -5.3158779297564855 6.240378439279354 -11.55625636903584 6.240378439279354
S 351.1453262883111 167.86241333972563 351.1453262883111 146.13665136593826
s 5.3158779297564855 -6.240378439279354 11.55625636903584 -6.240378439279354
S 374.2578390263828 124.41088939215088 374.2578390263828 146.13665136593826
z" fill="none" stroke="none" style="animation-play-state:paused" ></path>


<circle cx="0" cy="0" r="7.352226065164176" fill="#51cacc" transform="translate(355.2103576660156 157.00291442871094)" style="animation-play-state:paused" ></circle>
<path id="path2" d="M 851.4990094843746 613.2888396643416
c 0 33.14477695813268 -8.10989223443672 9.520308275208324 -17.630200509645043 9.520308275208324
S 816.2386084650844 646.4336166224742 816.2386084650844 613.2888396643416
s 8.10989223443672 -9.520308275208324 17.630200509645043 -9.520308275208324
S 851.4990094843746 580.144062706209 851.4990094843746 613.2888396643416
z" fill="none" stroke="none" style="animation-play-state:paused" ></path>


<circle cx="0" cy="0" r="6.032265031373755" fill="#de9dd6" transform="translate(817.24951171875 627.4036254882812)" style="animation-play-state:paused" ></circle>
<path id="path3" d="M 1378.374624794889 285.7372746895808
c 0 35.556066092360666 -8.699888511960587 10.212912600997212 -18.9128011129578 10.212912600997212
S 1340.5490225689734 321.2933407819414 1340.5490225689734 285.7372746895808
s 8.699888511960587 -10.212912600997212 18.9128011129578 -10.212912600997212
S 1378.374624794889 250.18120859722012 1378.374624794889 285.7372746895808
z" fill="none" stroke="none" style="animation-play-state:paused" ></path>


<circle cx="0" cy="0" r="4.395265291790649" fill="#51cacc" transform="translate(1340.565185546875 283.2065734863281)" style="animation-play-state:paused" ></circle>
<path id="path4" d="M 965.1054234874381 179.12998316410093
c 0 31.810429345589842 -7.783402924984748 9.137038216286443 -16.92044114127119 9.137038216286443
S 931.2645412048956 210.9404125096908 931.2645412048956 179.12998316410093
s 7.783402924984748 -9.137038216286443 16.92044114127119 -9.137038216286443
S 965.1054234874381 147.31955381851108 965.1054234874381 179.12998316410093
z" fill="none" stroke="none" style="animation-play-state:paused" ></path>


<circle cx="0" cy="0" r="7.443426670336609" fill="#de9dd6" transform="translate(946.15673828125 169.6434326171875)" style="animation-play-state:paused" ></circle>
<path id="path5" d="M 1262.116867819854 443.18373640337154
c 0 35.811466051597634 -8.762379991348356 10.286272163756767 -19.048652155105124 10.286272163756767
S 1224.0195635096436 478.99520245496916 1224.0195635096436 443.18373640337154
s 8.762379991348356 -10.286272163756767 19.048652155105124 -10.286272163756767
S 1262.116867819854 407.3722703517739 1262.116867819854 443.18373640337154
z" fill="none" stroke="none" style="animation-play-state:paused" ></path>


<circle cx="0" cy="0" r="5.552818815616507" fill="#ff708e" transform="translate(1224.0953369140625 437.9004821777344)" style="animation-play-state:paused" ></circle>
<path id="path6" d="M 778.6438082250701 376.3576042504809
c 0 29.26116168035748 -7.159645943066191 8.404801759251617 -15.564447702317807 8.404801759251617
S 747.5149128204345 405.6187659308384 747.5149128204345 376.3576042504809
s 7.159645943066191 -8.404801759251617 15.564447702317807 -8.404801759251617
S 778.6438082250701 347.09644257012343 778.6438082250701 376.3576042504809
z" fill="none" stroke="none" style="animation-play-state:paused" ></path>


<circle cx="0" cy="0" r="4.97161967132275" fill="#9df871" transform="translate(776.4314575195312 361.13421630859375)" style="animation-play-state:paused" ></circle>
<path id="path7" d="M 406.82255458566533 535.7104993025705
c 0 23.642126608844592 -5.78477565961091 6.790823600412808 -12.575599260023719 6.790823600412808
S 381.67135606561794 559.3526259114151 381.67135606561794 535.7104993025705
s 5.78477565961091 -6.790823600412808 12.575599260023719 -6.790823600412808
S 406.82255458566533 512.0683726937259 406.82255458566533 535.7104993025705
z" fill="none" stroke="none" style="animation-play-state:paused" ></path>


<circle cx="0" cy="0" r="6.404401043378312" fill="#ff708e" transform="translate(399.28558349609375 526.4854125976562)" style="animation-play-state:paused" ></circle>
<path id="path8" d="M 661.2781476897891 489.2644058330491
c 0 21.920305146070394 -5.363478918719351 6.2962578611053255 -11.659736779824676 6.2962578611053255
S 637.9586741301397 511.18471097911953 637.9586741301397 489.2644058330491
s 5.363478918719351 -6.2962578611053255 11.659736779824676 -6.2962578611053255
S 661.2781476897891 467.3441006869787 661.2781476897891 489.2644058330491
z" fill="none" stroke="none" style="animation-play-state:paused" ></path>


<circle cx="0" cy="0" r="7.84773849190402" fill="#e0ff77" transform="translate(640.1439819335938 500.93365478515625)" style="animation-play-state:paused" ></circle>
<path id="path9" d="M 584.5969212214115 364.38768076791655
c 0 35.76013673778989 -8.749820691161355 10.27152863745029 -19.021349328611645 10.27152863745029
S 546.5542225641882 400.1478175057064 546.5542225641882 364.38768076791655
s 8.749820691161355 -10.27152863745029 19.021349328611645 -10.27152863745029
S 584.5969212214115 328.62754403012667 584.5969212214115 364.38768076791655
z" fill="none" stroke="none" style="animation-play-state:paused" ></path>


<circle cx="0" cy="0" r="4.074976097491509" fill="#ff708e" transform="translate(546.9677124023438 375.27606201171875)" style="animation-play-state:paused" ></circle>
<path id="path10" d="M 1204.9613851501197 198.19928138064273
c 0 31.430832384407257 -7.69052281746135 9.028005046585063 -16.718527864046415 9.028005046585063
S 1171.524329422027 229.63011376505 1171.524329422027 198.19928138064273
s 7.69052281746135 -9.028005046585063 16.718527864046415 -9.028005046585063
S 1204.9613851501197 166.76844899623546 1204.9613851501197 198.19928138064273
z" fill="none" stroke="none" style="animation-play-state:paused" ></path>


<circle cx="0" cy="0" r="5.3683588109803" fill="#9df871" transform="translate(1176.9210205078125 214.24830627441406)" style="animation-play-state:paused" ></circle>
<path id="path11" d="M 1270.8595381670239 521.9754012843478
c 0 28.114256945612063 -6.879020316479546 8.075371675867295 -14.95439199234684 8.075371675867295
S 1240.95075418233 550.0896582299598 1240.95075418233 521.9754012843478
s 6.879020316479546 -8.075371675867295 14.95439199234684 -8.075371675867295
S 1270.8595381670239 493.8611443387357 1270.8595381670239 521.9754012843478
z" fill="none" stroke="none" style="animation-play-state:paused" ></path>


<circle cx="0" cy="0" r="4.76939333486052" fill="#ff708e" transform="translate(1250.6883544921875 511.62371826171875)" style="animation-play-state:paused" ></circle>
<path id="path12" d="M 990.9133462418278 423.3598873111584
c 0 32.33631182919793 -7.912076298633536 9.288089567961109 -17.200165866594645 9.288089567961109
S 956.5130145086385 455.6961991403563 956.5130145086385 423.3598873111584
s 7.912076298633536 -9.288089567961109 17.200165866594645 -9.288089567961109
S 990.9133462418278 391.02357548196045 990.9133462418278 423.3598873111584
z" fill="none" stroke="none" style="animation-play-state:paused" ></path>


<circle cx="0" cy="0" r="4.226279987486773" fill="#e0ff77" transform="translate(982.3164672851562 437.4398193359375)" style="animation-play-state:paused" ></circle>
<path id="path13" d="M 1294.6578707164208 85.61591513535699
c 0 30.465981896987348 -7.454442379050095 8.750867140624026 -16.20530951967412 8.750867140624026
S 1262.2472516770727 116.08189703234433 1262.2472516770727 85.61591513535699
s 7.454442379050095 -8.750867140624026 16.20530951967412 -8.750867140624026
S 1294.6578707164208 55.14993323836964 1294.6578707164208 85.61591513535699
z" fill="none" stroke="none" style="animation-play-state:paused" ></path>


<circle cx="0" cy="0" r="6.090092805234042" fill="#e0ff77" transform="translate(1294.5146484375 79.21593475341797)" style="animation-play-state:paused" ></circle>
<path id="path14" d="M 814.3609416159818 427.0711816271416
c 0 25.071518715628944 -6.1345205368028255 7.201393673638101 -13.335914210440926 7.201393673638101
S 787.6891131950999 452.1427003427705 787.6891131950999 427.0711816271416
s 6.1345205368028255 -7.201393673638101 13.335914210440926 -7.201393673638101
S 814.3609416159818 401.99966291151264 814.3609416159818 427.0711816271416
z" fill="none" stroke="none" style="animation-play-state:paused" ></path>


<circle cx="0" cy="0" r="4.741954424391073" fill="#9df871" transform="translate(803.7107543945312 419.1274719238281)" style="animation-play-state:paused" ></circle>
<path id="path15" d="M 659.3668808592327 251.8084990099477
c 0 19.517028598681 -4.775443167762373 5.605955023025395 -10.381398190787767 5.605955023025395
S 638.6040844776571 271.3255276086287 638.6040844776571 251.8084990099477
s 4.775443167762373 -5.605955023025395 10.381398190787767 -5.605955023025395
S 659.3668808592327 232.2914704112667 659.3668808592327 251.8084990099477
z" fill="none" stroke="none" style="animation-play-state:paused" ></path>


<circle cx="0" cy="0" r="7.694533115339293" fill="#9df871" transform="translate(643.6334228515625 243.1718292236328)" style="animation-play-state:paused" ></circle>
<path id="path16" d="M 1199.5115728000342 97.08061403965053
c 0 19.55398262657653 -4.784485110758086 5.6165694778464506 -10.401054588604538 5.6165694778464506
S 1178.7094636228253 116.63459666622705 1178.7094636228253 97.08061403965053
s 4.784485110758086 -5.6165694778464506 10.401054588604538 -5.6165694778464506
S 1199.5115728000342 77.526631413074 1199.5115728000342 97.08061403965053
z" fill="none" stroke="none" style="animation-play-state:paused" ></path>


<circle cx="0" cy="0" r="4.499147084556653" fill="#ff708e" transform="translate(1199.5025634765625 98.4191665649414)" style="animation-play-state:paused" ></circle>
<path id="path17" d="M 741.3484261544877 437.79041839519203
c 0 29.08444646955603 -7.116407114891368 8.354043134872477 -15.470450249763845 8.354043134872477
S 710.40752565496 466.8748648647481 710.40752565496 437.79041839519203
s 7.116407114891368 -8.354043134872477 15.470450249763845 -8.354043134872477
S 741.3484261544877 408.705971925636 741.3484261544877 437.79041839519203
z" fill="none" stroke="none" style="animation-play-state:paused" ></path>


<circle cx="0" cy="0" r="4.127238730244278" fill="#de9dd6" transform="translate(711.8053588867188 451.74847412109375)" style="animation-play-state:paused" ></circle>
<path id="path18" d="M 983.2657547305594 461.3285096931672
c 0 32.173293321052746 -7.872188791321416 9.241265102855577 -17.113453894176992 9.241265102855577
S 949.0388469422053 493.50180301421994 949.0388469422053 461.3285096931672
s 7.872188791321416 -9.241265102855577 17.113453894176992 -9.241265102855577
S 983.2657547305594 429.1552163721144 983.2657547305594 461.3285096931672
z" fill="none" stroke="none" style="animation-play-state:paused" ></path>


<circle cx="0" cy="0" r="7.653646377957461" fill="#e0ff77" transform="translate(965.3129272460938 452.0256652832031)" style="animation-play-state:paused" ></circle>
<path id="path19" d="M 1324.461713246126 461.4560844054793
c 0 25.324140695727515 -6.196332297890774 7.273955306219606 -13.47028760411038 7.273955306219606
S 1297.5211380379053 486.78022510120684 1297.5211380379053 461.4560844054793
s 6.196332297890774 -7.273955306219606 13.47028760411038 -7.273955306219606
S 1324.461713246126 436.1319437097518 1324.461713246126 461.4560844054793
z" fill="none" stroke="none" style="animation-play-state:paused" ></path>


<circle cx="0" cy="0" r="4.378285515122871" fill="#de9dd6" transform="translate(1301.262939453125 448.18817138671875)" style="animation-play-state:paused" ></circle>
<path id="path20" d="M 566.3359217811965 43.57149290941416
c 0 26.437727514088383 -6.4688056683407735 7.593815349791344 -14.062621018132118 7.593815349791344
S 538.2106797449323 70.00922042350254 538.2106797449323 43.57149290941416
s 6.4688056683407735 -7.593815349791344 14.062621018132118 -7.593815349791344
S 566.3359217811965 17.133765395325778 566.3359217811965 43.57149290941416
z" fill="none" stroke="none" style="animation-play-state:paused" ></path>


<circle cx="0" cy="0" r="6.256194130875475" fill="#51cacc" transform="translate(565.96240234375 34.88671875)" style="animation-play-state:paused" ></circle>
<path id="path21" d="M 673.5544711692435 202.62809276587885
c 0 18.81890463890092 -4.604625603135331 5.40543005585452 -10.010055658989852 5.40543005585452
S 653.5343598512638 221.44699740477978 653.5343598512638 202.62809276587885
s 4.604625603135331 -5.40543005585452 10.010055658989852 -5.40543005585452
S 673.5544711692435 183.80918812697792 673.5544711692435 202.62809276587885
z" fill="none" stroke="none" style="animation-play-state:paused" ></path>


<circle cx="0" cy="0" r="6.626307368677693" fill="#e0ff77" transform="translate(673.0936279296875 195.14010620117188)" style="animation-play-state:paused" ></circle>
<path id="path22" d="M 621.273300247635 608.1967104420797
c 0 25.637058011519578 -6.272897173031385 7.363835811819453 -13.63673298485084 7.363835811819453
S 593.9998342779334 633.8337684535993 593.9998342779334 608.1967104420797
s 6.272897173031385 -7.363835811819453 13.63673298485084 -7.363835811819453
S 621.273300247635 582.5596524305602 621.273300247635 608.1967104420797
z" fill="none" stroke="none" style="animation-play-state:paused" ></path>


<circle cx="0" cy="0" r="7.225337358711665" fill="#ff708e" transform="translate(621.2493286132812 610.77197265625)" style="animation-play-state:paused" ></circle>
<path id="path23" d="M 1056.9105522115728 498.8128174437261
c 0 30.831848283897333 -7.543962877974878 8.855956421970511 -16.399919299945388 8.855956421970511
S 1024.110713611682 529.6446657276234 1024.110713611682 498.8128174437261
s 7.543962877974878 -8.855956421970511 16.399919299945388 -8.855956421970511
S 1056.9105522115728 467.98096915982876 1056.9105522115728 498.8128174437261
z" fill="none" stroke="none" style="animation-play-state:paused" ></path>


<circle cx="0" cy="0" r="5.150091622368603" fill="#9df871" transform="translate(1024.6749267578125 487.6942138671875)" style="animation-play-state:paused" ></circle>
<path id="path24" d="M 904.9232012107518 69.2688662166795
c 0 32.690514957111795 -7.998743021420971 9.389828764276793 -17.388571785697764 9.389828764276793
S 870.1460576393563 101.95938117379129 870.1460576393563 69.2688662166795
s 7.998743021420971 -9.389828764276793 17.388571785697764 -9.389828764276793
S 904.9232012107518 36.578351259567704 904.9232012107518 69.2688662166795
z" fill="none" stroke="none" style="animation-play-state:paused" ></path>


<circle cx="0" cy="0" r="5.48031218280571" fill="#de9dd6" transform="translate(891.6177368164062 79.94855499267578)" style="animation-play-state:paused" ></circle>
<path id="path25" d="M 57.95286835079474 20.299132642755758
c 0 20.62885673062109 -5.047486221322181 5.9253099119869095 -10.97279613330909 5.9253099119869095
S 36.00727608417656 40.927989373376846 36.00727608417656 20.299132642755758
s 5.047486221322181 -5.9253099119869095 10.97279613330909 -5.9253099119869095
S 57.95286835079474 -0.32972408786533336 57.95286835079474 20.299132642755758
z" fill="none" stroke="none" style="animation-play-state:paused" ></path>


<circle cx="0" cy="0" r="6.349600112778627" fill="#de9dd6" transform="translate(41.050567626953125 29.66352653503418)" style="animation-play-state:paused" ></circle>
<path id="path26" d="M 400.2087895027059 572.3468789807587
c 0 23.224459759109294 -5.682580579356529 6.670855462722883 -12.35343604207941 6.670855462722883
S 375.50191741854707 595.571338739868 375.50191741854707 572.3468789807587
s 5.682580579356529 -6.670855462722883 12.35343604207941 -6.670855462722883
S 400.2087895027059 549.1224192216494 400.2087895027059 572.3468789807587
z" fill="none" stroke="none" style="animation-play-state:paused" ></path>


<circle cx="0" cy="0" r="5.244907649305227" fill="#51cacc" transform="translate(399.9866638183594 578.9097900390625)" style="animation-play-state:paused" ></circle>
<path id="path27" d="M 752.2450392041246 508.49065427065983
c 0 29.535198638027364 -7.226697539091801 8.483514502412115 -15.710212041503917 8.483514502412115
S 720.8246151211167 538.0258529086872 720.8246151211167 508.49065427065983
s 7.226697539091801 -8.483514502412115 15.710212041503917 -8.483514502412115
S 752.2450392041246 478.9554556326325 752.2450392041246 508.49065427065983
z" fill="none" stroke="none" style="animation-play-state:paused" ></path>


<circle cx="0" cy="0" r="7.856746128856136" fill="#9df871" transform="translate(723.1263427734375 493.0687561035156)" style="animation-play-state:paused" ></circle>
<path id="path28" d="M 283.5713235500529 409.8214438686847
c 0 36.30813080679682 -8.8839043463439 10.42893118918632 -19.312835535530223 10.42893118918632
S 244.94565247899249 446.12957467548154 244.94565247899249 409.8214438686847
s 8.8839043463439 -10.42893118918632 19.312835535530223 -10.42893118918632
S 283.5713235500529 373.51331306188786 283.5713235500529 409.8214438686847
z" fill="none" stroke="none" style="animation-play-state:paused" ></path>


<circle cx="0" cy="0" r="4.5543601698550145" fill="#ff708e" transform="translate(246.53956604003906 392.7615661621094)" style="animation-play-state:paused" ></circle>
<path id="path29" d="M 61.51178690453331 84.50507426668051
c 0 24.079190679562327 -5.891716868403547 6.916363280299818 -12.808080148703365 6.916363280299818
S 35.89562660712657 108.58426494624284 35.89562660712657 84.50507426668051
s 5.891716868403547 -6.916363280299818 12.808080148703365 -6.916363280299818
S 61.51178690453331 60.42588358711818 61.51178690453331 84.50507426668051
z" fill="none" stroke="none" style="animation-play-state:paused" ></path>


<circle cx="0" cy="0" r="6.268166854232522" fill="#ff708e" transform="translate(51.73359298706055 76.62548065185547)" style="animation-play-state:paused" ></circle></g></svg>