<svg height="431pt" viewBox="-22 1 431 431.99135" width="431pt" xmlns="http://www.w3.org/2000/svg" xmlns:xlink="http://www.w3.org/1999/xlink"><linearGradient id="a" gradientUnits="userSpaceOnUse" x1="6.559675" x2="390.695675" y1="433.247348" y2="49.103348"><stop offset="0" stop-color="#41dfd0"/><stop offset="1" stop-color="#ee83ef"/></linearGradient><path d="m.839844 426.269531c.046875.167969.160156.296875.214844.457031.128906.324219.28125.636719.457031.9375.277343.546876.621093 1.054688 1.023437 1.519532.222656.257812.460938.503906.710938.734375.488281.421875 1.027344.78125 1.601562 1.066406.257813.160156.523438.304687.800782.429687.90625.367188 1.875.5625 2.855468.578126h352c13.253906 0 24-10.746094 24-24v-224c-.019531-.949219-.207031-1.886719-.558594-2.769532-.085937-.226562-.183593-.445312-.289062-.664062-.347656-.746094-.808594-1.429688-1.367188-2.03125-.054687-.078125-.113281-.152344-.175781-.222656-.535156-.53125-1.140625-.984376-1.800781-1.34375-.148438-.066407-.296875-.121094-.449219-.167969-.21875-.101563-.441406-.183594-.671875-.257813-.753906-.277344-1.542968-.433594-2.34375-.472656-.121094 0-.222656-.070312-.34375-.070312h-24v-29.257813c27.605469-18.15625 41.199219-51.429687 34.199219-83.722656s-33.144531-56.953125-65.792969-62.054688c-32.648437-5.097656-65.070312 10.414063-81.582031 39.035157h-198.824219c-4.417968 0-8 3.582031-8 8v128h-24c-.269531.035156-.535156.089843-.800781.160156-.542969.046875-1.078125.152344-1.597656.320312-.472657.148438-.925781.34375-1.363281.574219-.441407.242187-.859376.523437-1.246094.847656-.417969.34375-.800782.730469-1.136719 1.152344-.195313.183594-.382813.375-.558594.578125-.097656.203125-.183593.414062-.257812.628906-.488281.957032-.796875 1.992188-.910157 3.058594 0 .238281-.136718.4375-.136718.679688v240c0 .191406.09375.359374.113281.550781.007813.582031.085937 1.164062.230469 1.726562zm367.664062-227.511719v209.234376c0 4.417968-3.582031 8-8 8h-325.089844zm-60-182.765624c35.347656 0 64 28.652343 64 64 0 35.34375-28.652344 64-64 64s-64-28.65625-64-64c.039063-35.332032 28.671875-63.960938 64-64zm-260 40h183.6875c-9.261718 29.167968-1.035156 61.0625 21.179688 82.113281 22.214844 21.046875 54.503906 27.546875 83.132812 16.734375v45.152344c0 .167968.085938.3125.097656.472656l-144.097656 93.972656-144-93.910156zm-32 142.765624 161.359375 105.234376-161.359375 105.230468zm286.34375-73.109374c3.125 3.121093 8.1875 3.121093 11.3125 0l36.6875-36.6875c6.863282-6.867188 8.914063-17.1875 5.199219-26.15625s-12.46875-14.816407-22.175781-14.8125h-2.734375c-6.371094-.019532-12.484375 2.511718-16.976563 7.03125l-5.65625 5.65625-5.65625-5.65625c-4.492187-4.519532-10.605468-7.050782-16.976562-7.03125h-2.734375c-9.707031-.003907-18.460938 5.84375-22.175781 14.8125-3.714844 8.96875-1.664063 19.289062 5.199218 26.15625zm-25.375-59.3125c1.5-1.503907 3.539063-2.347657 5.664063-2.34375h2.734375c2.125-.003907 4.164062.839843 5.664062 2.34375l11.3125 11.3125c3.125 3.121093 8.1875 3.121093 11.3125 0l11.3125-11.3125c1.5-1.503907 3.539063-2.347657 5.664063-2.34375h2.734375c3.238281-.003907 6.15625 1.945312 7.394531 4.933593 1.242187 2.992188.558594 6.433594-1.730469 8.722657l-31.03125 31.03125-31.03125-31.03125c-3.125-3.125-3.125-8.1875 0-11.3125zm-68.96875 37.65625h-128v-16h128zm0 48h-128v-16h128zm0 40h-128v-16h128zm-72 32h16v16h-16zm64 16h-16v-16h16zm48 0h-16v-16h16zm0 0" fill="url(#a)"/></svg>