<svg xmlns="http://www.w3.org/2000/svg" viewBox="0 0 296.35 512.04"><defs><style>.cls-1{fill:#ffd15c;}.cls-2{fill:#f7b64c;}.cls-3{fill:#344a5e;}.cls-4{fill:#415a6b;}.cls-5{fill:#8ad7f8;}</style></defs><title>Asset 15</title><g id="Layer_2" data-name="Layer 2"><g id="Capa_1" data-name="Capa 1"><path class="cls-1" d="M131.37,44.84c-1.07,4.27-4.27,7.47-6.4,7.47-2.14-1.07-3.2-4.27-2.14-8.53s4.27-7.47,6.4-7.47C132.43,36.31,133.5,40.58,131.37,44.84Z"/><path class="cls-1" d="M80.17,44.84c1.06,4.27,4.26,7.47,6.4,7.47,3.2-1.07,3.2-5.33,2.13-9.6s-4.27-7.47-6.4-7.47C79.1,36.31,79.1,40.58,80.17,44.84Z"/><path class="cls-1" d="M78,80,89.77,69.38s-3.2-12.8-3.2-16S79.1,31,82.3,21.38,84.43,4.31,100.43,3.24,119.63,8.58,125,13.91c5.33,6.4,4.26,25.6,4.26,28.8S126,63,121.77,70.44v5.34L133.5,96v20.27l-11.73,1.07-51.2-10.67Z"/><path class="cls-2" d="M133.5,96l-12.8-19.2V71.51s-17.07,14.93-30.93-2.13c0,0,9.6,24.53,44.8,30.93Z"/><path class="cls-1" d="M212.43,156.84s10.67-4.26,11.74-5.33c2.13-1.07,3.2-3.2,6.4-4.27S238,143,240.17,143s5.33-1.07,6.4-1.07,9.6,3.2,9.6,3.2,0,4.27-3.2,4.27c-1.07,0-9.6-2.14-10.67-2.14s3.2,1.07,3.2,1.07,8.53,1.07,9.6,1.07h1.07c1.06-1.07,3.2,0,3.2,2.13h0c0,1.07,0,1.07-1.07,2.13a3.69,3.69,0,0,0-2.13,1.07H254c-1.06,0,0,2.13,0,3.2A1,1,0,0,1,253,159h-2.14a5.3,5.3,0,0,1-1.06,3.2c-1.07,1.07-1.07,0-1.07,0s1.07,3.2-4.27,5.33c-4.26,2.13-16,2.13-18.13,2.13-2.13-1.06-11.73,5.34-11.73,5.34Z"/><path class="cls-3" d="M94,511c2.14,0,3.2-1.07,4.27-2.14s1.07-5.33,0-8.53c-2.13-5.33-2.13-3.2-2.13-3.2l-28.8,1.07s-1.07,4.27,0,7.47,4.26,4.26,7.46,4.26C80.17,509.91,89.77,511,94,511Z"/><path class="cls-4" d="M68.43,480s-1.06,7.47-2.13,12.8,0,10.67,1.07,12.8c2.13,2.14,10.66,1.07,16,1.07s8.53,1.07,11.73,0c3.2,0,2.13-9.6,0-14.93s-5.33-9.6-5.33-14.93v-5.34Z"/><path class="cls-3" d="M164.43,503.51l3.2,2.13s1.07,1.07,0,3.2c0,0-2.13,0-5.33,2.14C158,512,152.7,512,146.3,512c-6.4-1.06-8.53-4.26-10.67-6.4a15.63,15.63,0,0,0-5.33-3.2v2.14H117.5s-2.13-6.4,2.13-10.67l4.27-4.27C125,489.64,164.43,503.51,164.43,503.51Z"/><path class="cls-4" d="M144.17,475.78s5.33,4.26,7.46,8.53,2.14,9.6,6.4,11.73,9.6,6.4,9.6,8.54A32.26,32.26,0,0,0,157,506.71c-5.34,2.13-13.87,2.13-17.07-1.07-3.2-2.13-5.33-6.4-10.67-7.46-5.33-2.14-10.66,0-11.73-2.14-1.07-3.2,0-14.93,3.2-19.2C125,473.64,144.17,475.78,144.17,475.78Z"/><path class="cls-3" d="M148.43,111l8.54-7.47s3.2,12.8,3.2,22.4-2.14,13.87,0,17.07,9.6,11.73,9.6,17.06,1.06,6.4,4.26,5.34,14.94-3.2,18.14-4.27c2.13-1.07,24.53-7.47,24.53-7.47s-1.07,22.4,10.67,25.6c0,0-34.14,11.74-40.54,12.8s-19.2,5.34-22.4,5.34-9.6-1.07-12.8-5.34-7.46-11.73-7.46-14.93C145.23,173.91,148.43,111,148.43,111Z"/><path class="cls-5" d="M147.37,221.91s-26.67,16-55.47,12.8-32-3.2-32-4.27S74.83,130.18,80.17,90.71H85.5c3.2,8.53,11.73,12.8,20.27,12.8,9.6,0,17.06-5.33,20.26-13.87h2.14L141,175Z"/><path class="cls-3" d="M54.57,229.38c37.33,8.53,70.4,8.53,92.8-7.47,0,0,11.73,34.13,11.73,39.47s-2.13,4.26-2.13,12.8,0,66.13-1.07,76.8-3.2,24.53-2.13,28.8S158,397.91,158,410.71s-6.4,53.33-7.46,57.6S151.63,480,151.63,480s-10.66-3.2-16,2.14c-5.33,4.26-13.86,5.33-17.06,0,0,0,0-23.47,2.13-34.14s0-45.86,0-54.4A240.51,240.51,0,0,0,119.63,367c-1.06-10.67-4.26-35.2-5.33-38.4s-6.4-21.34-6.4-21.34a157.54,157.54,0,0,1-4.27,24.54c-3.2,11.73-8.53,29.86-9.6,33.06-1.06,4.27-4.26,30.94-4.26,40.54s3.2,23.46,4.26,32c1.07,7.46,1.07,34.13,1.07,38.4v6.4s-3.2-4.27-10.67-4.27-13.86,6.4-13.86,6.4S62,474.71,62,469.38,57.77,457.64,56.7,447s-1.07-50.14,0-64-2.13-46.94-4.27-67.2C51.37,296.58,48.17,249.64,54.57,229.38Z"/><path class="cls-4" d="M120.7,76.84s6.4,11.74,6.4,23.47c1.07,11.73,4.27,58.67,6.4,73.6,2.13,16,8.53,54.4,8.53,65.07,1.07,10.67-1.06,19.2,6.4,22.4s12.8,0,12.8,0-7.46-16-8.53-25.6c0-9.6-6.4-42.67-6.4-42.67s4.27-42.67,7.47-52.27c2.13-10.66,3.2-37.33,3.2-37.33s-25.6-14.93-29.87-20.27S120.7,76.84,120.7,76.84Z"/><path class="cls-3" d="M46,192c-4.26,1.07-7.46,7.47-8.53,13.87s-2.13,13.87-2.13,13.87S18.3,201.65,13,196.31,2.3,180.31.17,175c-1.07-4.27,3.2-17.07,6.4-22.4s13.86-28.8,19.2-40.53S36.43,90.71,36.43,90.71s5.34,13.87,6.4,25.6c1.07,6.4,0,17.07,0,24.54a71.41,71.41,0,0,0-3.2,7.46c-1.06,4.27-11.73,18.14-11.73,18.14A16.78,16.78,0,0,0,29,170.71c1.07,3.2,3.2,5.34,6.4,7.47,1.07,1.07,2.13,3.2,4.27,4.27A60.55,60.55,0,0,1,46,192Z"/><path class="cls-3" d="M293.5,104.58l-62.93,60.8a3,3,0,1,0,4.26,4.26l60.8-61.86C297.77,105.64,294.57,102.44,293.5,104.58Z"/><path class="cls-1" d="M238,167.51h1.07c3.2-2.13,6.4-4.27,8.53-7.47,2.14-2.13,3.2-5.33,4.27-8.53a13.49,13.49,0,0,1-6.4-1.07h-2.13c-1.07,0-1.07,0-1.07,1.07v2.13c0,1.07,1.07,1.07,1.07,2.14h-2.14a3.74,3.74,0,0,0-2.13,1.06V160h-4.27a3.94,3.94,0,0,0-1.06,3.2A8.3,8.3,0,0,0,238,167.51Z"/><path class="cls-4" d="M84.43,42.71s1.07-10.67,0-16S90.83,11.78,96.17,15s13.86,3.2,17.06-1.07S126,17.11,126,24.58V41.65h1.07c1.07-2.14,4.27-11.74,3.2-17.07,0-7.47-7.47-25.6-26.67-24.53S79.1,17.11,78,26.71c-1.06,5.33,3.2,11.73,6.4,16Z"/><path class="cls-4" d="M88.7,69.38S84.43,83.24,85.5,95s1.07,67.2,1.07,73.6-7.47,60.8-10.67,69.33c-3.2,7.47-10.67,25.6-22.4,25.6S30,256,30,256,43.9,170.71,41.77,152.58c0,0,3.2-22.4,1.06-34.14s-6.4-25.6-6.4-25.6S61,83.24,69.5,82.18,81.23,72.58,88.7,69.38Z"/></g></g></svg>