<svg xmlns="http://www.w3.org/2000/svg" viewBox="0 0 500.32 512"><defs><style>.cls-1{fill:#fec9a3;}.cls-2{fill:#f5b789;}.cls-3{fill:#f9b44d;}.cls-4{fill:#f7aa36;}.cls-5{fill:#f7c097;}.cls-6{fill:#e8594a;}.cls-7{fill:#4398d1;}.cls-8{fill:#3f8fc4;}.cls-9{fill:#3685ba;}</style></defs><title>Asset 1</title><g id="Layer_2" data-name="Layer 2"><g id="Capa_1" data-name="Capa 1"><path class="cls-1" d="M355.8,512l86.78-164.88H373.15l-43.39,78.1V355.8a52.07,52.07,0,0,0-52.07-52.07H225.63a26,26,0,0,1-26-26V243H130.17V277.7a26,26,0,0,1-26,26H52.07A52.07,52.07,0,0,0,0,355.8V512Z"/><path class="cls-2" d="M69.12,512H51.76V488.92A86.5,86.5,0,0,1,48.18,391l6.34-10,14.66,9.31-6.34,10a69.14,69.14,0,0,0,4.38,80.24,8.71,8.71,0,0,1,1.9,5.43v26Z"/><path class="cls-2" d="M278,512H260.64V486a8.71,8.71,0,0,1,1.9-5.43,69.14,69.14,0,0,0,4.39-80.23l-6.35-10L275.24,381l6.34,10A86.48,86.48,0,0,1,278,488.92V512Z"/><path class="cls-3" d="M286.37,208.27V121.49A121.49,121.49,0,0,0,164.88,0h0A121.49,121.49,0,0,0,43.39,121.49v86.78a52.07,52.07,0,0,0,52.07,52.07H234.3A52.07,52.07,0,0,0,286.37,208.27Z"/><path class="cls-4" d="M164.88,0a121.75,121.75,0,0,0-34.71,5.09A121.51,121.51,0,0,1,217,121.49v86.78a52.07,52.07,0,0,1-52.07,52.07h69.43a52.06,52.06,0,0,0,52.06-52.07V121.49A121.49,121.49,0,0,0,164.88,0Z"/><path class="cls-1" d="M448.25,347.12h-78.1a52.07,52.07,0,0,1,52.07-52.07h78.1A52.07,52.07,0,0,1,448.25,347.12Z"/><path class="cls-5" d="M199.64,278.14V243H130.17v35.16a77.52,77.52,0,0,0,69.51,0Z"/><path class="cls-1" d="M86.78,144.87v37.37a78.1,78.1,0,0,0,156.2,0V112.81a77.63,77.63,0,0,0-9.34-37Z"/><rect class="cls-6" x="104.14" y="355.8" width="121.49" height="95.46"/><path class="cls-7" d="M373.15,347.12l-43.39,78.1V355.8a52.07,52.07,0,0,0-52.07-52.07H249.92l-85,112.81L84.18,303.73H52.07A52.07,52.07,0,0,0,0,355.8V512H355.8l86.78-164.88Z"/><path class="cls-8" d="M442.06,347H372.64l-43.39,78.11V355.63a52.07,52.07,0,0,0-46.35-51.74c-15.62,121.23-88.44,179.81-152.73,208H355.28Z"/><path class="cls-9" d="M69.12,512H51.76V488.92A86.5,86.5,0,0,1,48.18,391l6.34-10,14.66,9.31-6.34,10a69.14,69.14,0,0,0,4.38,80.24,8.71,8.71,0,0,1,1.9,5.43v26Z"/><path class="cls-9" d="M278,512H260.64V486a8.71,8.71,0,0,1,1.9-5.43,69.14,69.14,0,0,0,4.39-80.23l-6.35-10L275.24,381l6.34,10A86.48,86.48,0,0,1,278,488.92V512Z"/><path class="cls-5" d="M243,182.24V112.81a77.63,77.63,0,0,0-9.34-37l-22,10.36A121.15,121.15,0,0,1,217,121.49v86.78a52.07,52.07,0,0,1-52.07,52.07,78.09,78.09,0,0,0,78.1-78.1Z"/></g></g></svg>